PathFileType	4	(X/Y/Z)	C:\Users\dbl\Desktop\LZH\BX\Trimmed_Trimmed_Trimmed_Trimmed_bx_n_5_1801.trc
DataRate	CameraRate	NumFrames	NumMarkers	Units	OrigDataRate	OrigDataStartFrame	OrigNumFrames
50.00	50.00	       8	43	mm	50.00	109	       290
Frame#	Time	Top.Head			R.Acromium			L.Acromium			Sternum			R.ASIS			L.ASIS			V.Sacral			R.Thigh.Upper			R.Thigh.Front			R.Thigh.Rear			R.Knee.Lat			R.Knee.Med			R.Shank.Upper			R.Shank.Front			R.Shank.Rear			R.Ankle.Lat			R.Midfoot.Lat			R.Toe.Lat			R.Toe.Tip			R.Toe.Med			R.Ankle.Med			R.Midfoot.Sup			R.Heel			L.Thigh.Upper			L.Thigh.Front			L.Thigh.Rear			L.Knee.Lat			L.Knee.Med			L.Shank.Upper			L.Shank.Front			L.Shank.Rear			L.Ankle.Lat			L.Midfoot.Lat			L.Toe.Lat			L.Toe.Tip			L.Toe.Med			L.Ankle.Med			L.Midfoot.Sup			L.Heel			origin1 front left			origin2 front right			origin 3 back right			origin 4 back leftt			
		X1	Y1	Z1	X2	Y2	Z2	X3	Y3	Z3	X4	Y4	Z4	X5	Y5	Z5	X6	Y6	Z6	X7	Y7	Z7	X8	Y8	Z8	X9	Y9	Z9	X10	Y10	Z10	X11	Y11	Z11	X12	Y12	Z12	X13	Y13	Z13	X14	Y14	Z14	X15	Y15	Z15	X16	Y16	Z16	X17	Y17	Z17	X18	Y18	Z18	X19	Y19	Z19	X20	Y20	Z20	X21	Y21	Z21	X22	Y22	Z22	X23	Y23	Z23	X24	Y24	Z24	X25	Y25	Z25	X26	Y26	Z26	X27	Y27	Z27	X28	Y28	Z28	X29	Y29	Z29	X30	Y30	Z30	X31	Y31	Z31	X32	Y32	Z32	X33	Y33	Z33	X34	Y34	Z34	X35	Y35	Z35	X36	Y36	Z36	X37	Y37	Z37	X38	Y38	Z38	X39	Y39	Z39	X40	Y40	Z40	X41	Y41	Z41	X42	Y42	Z42	X43	Y43	Z43	

109	2.160	-249.98889	233.12381	1517.95801	-445.29840	66.98158	1293.45422	-444.73322	414.40198	1288.97119	-520.93488	241.00325	1111.50684	-710.89447	128.11780	911.96368	-680.68042	353.28470	913.51648	-893.87457	260.94095	967.55945	-716.95087	59.79330	766.45190	-618.17218	110.69334	799.55273	-634.04016	52.82278	683.09125	-582.67609	70.56415	574.57410	-540.35736	172.00099	546.28497	-601.82898	76.26881	517.60272	-520.08356	115.71754	499.69171	-623.42517	76.10056	471.51425	-682.03485	146.21889	211.64409	-611.23102	85.30608	161.88347	-562.51501	65.63096	160.63736	-484.88058	111.71102	159.28526	-531.61200	160.85524	167.75592	-630.89471	218.16925	218.52489	-595.52087	197.58501	173.55043	-719.75885	215.31786	173.15482	-697.22876	450.25198	782.80273	-600.93390	397.28040	803.74078	-630.99573	443.22876	687.32379	-547.10895	421.89166	580.67340	-512.75806	323.77869	546.26691	-553.62360	422.13431	537.39215	-488.89240	368.50873	520.48096	-619.28992	417.68881	488.43933	-669.48401	397.72656	212.82150	-582.93274	450.58463	164.28476	-544.03271	460.79370	156.39299	-478.95395	410.58789	164.92809	-523.47705	370.53754	177.60110	-636.29907	307.29498	204.17822	-592.53748	328.82986	168.73134	-731.32275	325.90247	163.34279	-443.56891	448.64218	147.21655	-450.27780	75.03176	143.84102	-806.15717	82.25477	141.68527	-799.83289	456.53580	144.96188	
110	2.180	-247.30148	232.89888	1501.42334	-441.62347	67.15621	1277.10291	-440.90509	413.89590	1272.45557	-521.30511	240.78398	1098.67749	-714.10083	128.17096	902.51508	-684.04010	353.30319	903.66113	-897.79382	260.87683	957.39276	-717.55896	59.08813	760.00293	-619.16724	109.77235	795.44843	-632.40332	51.38589	678.91162	-578.06232	68.57342	571.72083	-536.84863	170.10721	543.85712	-596.96100	74.39775	515.59174	-515.37732	114.07393	497.58029	-619.14288	74.69771	469.97351	-681.25439	146.37741	211.77986	-611.13843	85.45238	161.92575	-562.55237	65.53652	160.66978	-484.51505	111.64912	158.93221	-531.37067	160.93962	167.54201	-630.15192	218.19963	218.17961	-595.30212	197.72087	173.31589	-719.29236	215.74886	173.46741	-698.36060	450.31802	775.79889	-601.99463	397.99261	799.39075	-629.29968	443.77884	682.28180	-542.45013	422.61069	577.72205	-505.19910	329.27823	541.58350	-548.55432	422.69629	535.17139	-483.68842	369.08469	518.38483	-614.67664	418.27863	487.14081	-668.89789	397.45065	212.80588	-582.85577	450.48492	164.43803	-543.99292	460.69064	156.47887	-478.76068	410.52625	164.81285	-523.27850	370.40897	177.49944	-635.67896	307.19714	203.95514	-592.56854	328.76675	168.28683	-731.15692	325.76419	163.49394	-443.62582	448.65820	147.23103	-450.27750	75.04322	143.86099	-806.24182	82.30182	141.65364	-799.79608	456.54517	144.99960	
111	2.200	-244.93375	232.79559	1485.33643	-437.95923	67.42075	1261.04883	-436.99963	413.57019	1256.26868	-521.63898	240.57707	1086.16296	-717.03357	128.17206	893.21973	-687.15356	353.23611	893.76758	-901.50952	260.86673	947.33203	-718.21240	58.49189	753.54663	-620.40179	109.06232	791.24091	-630.85645	50.10578	674.80127	-573.68561	66.67415	569.05762	-533.41357	168.63164	541.75006	-592.36957	72.57798	513.68555	-510.95660	112.55684	495.59521	-615.10846	73.37743	468.49710	-680.50848	146.53552	211.93251	-611.06860	85.55239	161.96390	-562.58667	65.45462	160.67238	-484.17581	111.54700	158.61125	-531.17078	160.99721	167.35898	-629.45020	218.24788	217.77806	-595.06293	197.88850	173.10976	-718.85077	216.12436	173.74115	-699.26782	450.29117	768.94360	-603.09106	398.27536	795.03290	-627.56494	444.20651	677.47559	-537.99316	423.19702	574.91058	-497.64929	335.08435	536.69714	-543.71295	423.22937	532.97845	-478.79263	369.46600	516.37177	-610.30927	418.89273	485.92764	-668.34698	397.20963	212.82007	-582.76239	450.34998	164.58876	-543.96808	460.58679	156.58983	-478.59521	410.50778	164.76357	-523.13452	370.25278	177.39009	-635.03217	307.17310	203.73230	-592.59613	328.70914	167.82053	-731.00818	325.61813	163.59076	-443.67639	448.59198	147.18880	-450.27640	75.06231	143.86182	-806.34186	82.41019	141.60201	-799.67700	456.52261	144.99533	
112	2.220	-242.85889	232.77127	1469.67664	-434.24130	67.76623	1245.32654	-432.99811	413.37164	1240.38086	-521.95258	240.36949	1073.90454	-719.80261	128.24455	884.09009	-690.12518	353.14951	883.88599	-905.02612	260.91687	937.49615	-718.91577	58.04285	747.15753	-621.87988	108.63630	787.03357	-629.40009	48.94714	670.88019	-569.57001	64.98508	566.56354	-530.05682	167.53537	539.92352	-588.11023	70.96410	511.89020	-506.84271	111.22456	493.74893	-611.37335	72.17899	467.07791	-679.82666	146.74202	212.04437	-611.01617	85.64123	162.03909	-562.63708	65.37284	160.64545	-483.87485	111.40911	158.35828	-531.02704	161.02773	167.25609	-628.70074	218.42021	217.36125	-594.72638	198.13721	172.84802	-718.48187	216.44888	173.95967	-700.16034	450.12741	762.23938	-604.37024	398.32983	790.69250	-625.99194	444.42181	672.85736	-533.80701	423.62277	572.33057	-490.20514	341.01038	531.72668	-539.17023	423.71231	530.88306	-474.21698	369.55331	514.53558	-606.23492	419.37271	484.82806	-667.83740	397.01904	212.87590	-582.67871	450.13474	164.71547	-543.96167	460.45554	156.72501	-478.44980	410.56766	164.80598	-523.03998	370.03772	177.26263	-634.43335	307.19070	203.38800	-592.56354	328.62170	167.39424	-730.89862	325.40872	163.62799	-443.71292	448.42456	147.02426	-450.28012	75.10040	143.82640	-806.35986	82.51691	141.55583	-799.57990	456.47998	144.94107	
113	2.240	-241.03287	232.82739	1454.37610	-430.48044	68.23002	1229.88843	-428.95761	413.16510	1224.66992	-522.24634	240.15950	1061.89185	-722.45453	128.55533	875.17969	-692.99072	353.08832	874.05139	-908.37213	261.05542	927.93140	-719.64453	57.71447	740.97565	-623.53638	108.49530	782.92432	-628.03253	47.92621	667.21295	-565.74927	63.62632	564.21729	-526.78558	166.77588	538.33905	-584.19391	69.68994	510.17859	-503.01465	110.17457	492.04028	-607.91724	71.19482	465.72882	-679.21124	146.97449	212.09866	-610.97083	85.77227	162.16634	-562.72559	65.29478	160.60408	-483.60953	111.25299	158.18176	-530.93280	161.04710	167.20778	-627.91455	218.72568	216.96330	-594.28033	198.42767	172.57382	-718.20801	216.74937	174.13455	-701.17389	449.86017	755.65570	-605.89954	398.33502	786.36993	-624.66010	444.45996	668.34479	-529.89703	423.92285	569.98578	-482.96555	346.87515	526.78839	-534.98004	424.07565	528.91016	-469.91907	369.28781	512.94714	-602.44586	419.62201	483.79861	-667.35565	396.85217	212.93935	-582.63550	449.85040	164.81084	-543.96863	460.28268	156.85640	-478.32596	410.70905	164.94954	-522.98376	369.78839	177.12260	-633.92297	307.19647	202.86986	-592.49146	328.48511	167.01334	-730.83765	325.14194	163.63219	-443.75085	448.21298	146.78079	-450.27884	75.16859	143.75839	-806.29987	82.56094	141.53398	-799.55426	456.43637	144.87009	
114	2.260	-239.36722	233.02362	1439.34448	-426.73706	68.83656	1214.66687	-424.93188	412.86499	1209.05139	-522.51654	239.94939	1050.13330	-724.98730	129.17398	866.52014	-695.79077	352.99548	864.30469	-911.55188	261.27826	918.60071	-720.35889	57.44336	735.07819	-625.27295	108.61037	778.94122	-626.75323	47.09081	663.75104	-562.21021	62.64360	562.01746	-523.60449	166.31851	536.96979	-580.55652	68.77917	508.52112	-499.45477	109.51569	490.41699	-604.65149	70.47108	464.43515	-678.64575	147.19701	212.12689	-610.92426	85.97591	162.33333	-562.82886	65.26244	160.57263	-483.36667	111.10133	158.06360	-530.85370	161.09204	167.14139	-627.16595	219.04343	216.56781	-593.82574	198.66104	172.36427	-718.01880	217.03186	174.27953	-702.29968	449.56927	749.13855	-607.59460	398.34509	782.05170	-623.52832	444.43762	663.89874	-526.27246	424.14078	567.79053	-476.03436	352.49313	522.00177	-531.14758	424.31213	527.05573	-465.82635	368.64343	511.63699	-598.93457	419.69376	482.74567	-666.90662	396.65991	212.96024	-582.64386	449.55630	164.88194	-543.97931	460.08807	156.96100	-478.23346	410.87079	165.13611	-522.93719	369.56317	176.97910	-633.46338	307.16553	202.21548	-592.44904	328.30539	166.64693	-730.80774	324.87079	163.63547	-443.79507	448.05389	146.59166	-450.25897	75.25693	143.68773	-806.24249	82.54049	141.52872	-799.56848	456.41058	144.82722	
115	2.280	-237.74768	233.40378	1424.50378	-423.10376	69.57301	1199.62500	-420.94446	412.51138	1193.55176	-522.76056	239.74139	1038.63818	-727.40796	129.96233	858.08624	-698.57245	352.73532	854.68250	-914.52930	261.53818	909.38940	-721.01611	57.20964	729.37787	-626.99390	108.90347	775.04297	-625.56506	46.46686	660.35944	-558.90057	61.98262	559.92896	-520.51556	166.13550	535.79712	-577.11255	68.15956	506.89987	-496.14832	109.27985	488.82095	-601.50330	69.96703	463.15726	-678.11877	147.41284	212.19243	-610.86554	86.24352	162.52744	-562.88324	65.32755	160.57961	-483.14578	110.99758	157.96756	-530.74847	161.20009	167.00853	-626.46228	219.30261	216.20335	-593.49011	198.79416	172.19545	-717.86853	217.30046	174.43448	-703.45245	449.33841	742.64050	-609.29529	398.33429	777.72876	-622.50684	444.47693	659.51727	-522.94189	424.31955	565.61816	-469.52316	357.66632	517.49445	-527.59558	424.52438	525.31665	-461.89914	367.74561	510.53070	-595.71198	419.77594	481.62115	-666.52728	396.41617	212.91356	-582.67981	449.33215	164.94637	-543.98370	459.91046	157.03430	-478.17889	410.96115	165.25690	-522.87329	369.40561	176.84863	-632.95190	307.11224	201.52885	-592.44452	328.12604	166.31607	-730.78204	324.61957	163.63841	-443.83981	447.99777	146.54044	-450.22452	75.33842	143.64975	-806.23773	82.50433	141.52609	-799.58960	456.40967	144.82663	
116	2.300	-236.12082	233.92261	1409.83398	-419.66800	70.43591	1184.76526	-417.03088	412.20355	1178.22729	-522.97791	239.53661	1027.41064	-729.71869	130.69958	849.82544	-701.28491	352.24780	845.20386	-917.29883	261.81412	900.20215	-721.61420	57.04128	723.71680	-628.67468	109.23758	771.18677	-624.47021	46.03006	656.93811	-555.76746	61.51934	557.88715	-517.51965	166.20215	534.80554	-573.81512	67.71690	505.34372	-493.05188	109.36095	487.25168	-598.47510	69.60664	461.86841	-677.63269	147.65009	212.33295	-610.77747	86.53771	162.72816	-562.84790	65.49768	160.63048	-482.96011	110.98495	157.85107	-530.60107	161.37401	166.81137	-625.80597	219.55713	215.94070	-593.29773	198.88062	171.98654	-717.71155	217.57809	174.64807	-704.53668	449.23087	736.17334	-610.89105	398.30804	773.41010	-621.52026	444.64020	655.21411	-519.84424	424.55179	563.40448	-463.55026	362.18542	513.40161	-524.20575	424.83295	523.68036	-458.14667	366.85883	509.48175	-592.74963	420.05319	480.48160	-666.23456	396.15442	212.82687	-582.70233	449.22177	165.02419	-543.97974	459.77136	157.07463	-478.15576	410.93256	165.25095	-522.79602	369.31271	176.75883	-632.28009	307.04333	200.89375	-592.41296	327.99823	166.10345	-730.75110	324.38644	163.62482	-443.87891	448.01709	146.59427	-450.18848	75.39793	143.65277	-806.26923	82.48872	141.52888	-799.60388	456.43338	144.86191	
